<svg xmlns="http://www.w3.org/2000/svg" width="21.403" height="21.403" viewBox="0 0 21.403 21.403">
  <g id="Group_72970" data-name="Group 72970" transform="translate(-391 -67)">
    <g id="sign-in-alt" transform="translate(391 67)">
      <path id="Path_100856" data-name="Path 100856" d="M4.548,0H16.855A4.508,4.508,0,0,1,21.4,4.459V7.134a.892.892,0,1,1-1.784,0V4.459a2.724,2.724,0,0,0-2.765-2.675H4.548A2.724,2.724,0,0,0,1.784,4.459V16.944a2.724,2.724,0,0,0,2.765,2.675H16.855a2.724,2.724,0,0,0,2.765-2.675V14.269a.892.892,0,1,1,1.784,0v2.675A4.508,4.508,0,0,1,16.855,21.4H4.548A4.508,4.508,0,0,1,0,16.944V4.459A4.508,4.508,0,0,1,4.548,0Z" transform="translate(0 0)"/>
      <path id="Path_100857" data-name="Path 100857" d="M17.931,11.242a.892.892,0,0,1-.892.892h0L5.279,12.108l3.855,3.855a.892.892,0,1,1-1.261,1.261l-4.09-4.09a2.675,2.675,0,0,1,0-3.783l4.088-4.09A.892.892,0,1,1,9.132,6.522l-3.8,3.8,11.708.027A.892.892,0,0,1,17.931,11.242Z" transform="translate(0.796 -0.541)"/>
    </g>
  </g>
</svg>
