<svg xmlns="http://www.w3.org/2000/svg" width="14.455" height="14.455" viewBox="0 0 14.455 14.455">
  <path id="calendar-minus" d="M11.444,1.2h-.6V.6a.6.6,0,0,0-1.2,0v.6H4.818V.6a.6.6,0,0,0-1.2,0v.6h-.6A3.015,3.015,0,0,0,0,4.216v7.228a3.015,3.015,0,0,0,3.011,3.011h8.432a3.015,3.015,0,0,0,3.011-3.011V4.216A3.015,3.015,0,0,0,11.444,1.2Zm-8.432,1.2h8.432A1.809,1.809,0,0,1,13.25,4.216v.6H1.2v-.6A1.809,1.809,0,0,1,3.011,2.409ZM11.444,13.25H3.011A1.809,1.809,0,0,1,1.2,11.444V6.023H13.25v5.421A1.809,1.809,0,0,1,11.444,13.25ZM9.637,9.637a.6.6,0,0,1-.6.6H5.421a.6.6,0,0,1,0-1.2H9.034A.6.6,0,0,1,9.637,9.637Z" fill="#b8babf"/>
</svg>
