<svg id="Group_58873" data-name="Group 58873" xmlns="http://www.w3.org/2000/svg" width="21.102" height="19.088" viewBox="0 0 21.102 19.088">
  <g id="Group_55240" data-name="Group 55240" transform="translate(0 0)">
    <path id="Read-Quran" d="M2.918,3.918A2.4,2.4,0,0,1,5.316,2a13.941,13.941,0,0,1,2.878.288h.1a7.893,7.893,0,0,1,2.4.671,2.586,2.586,0,0,1,.767.671,2.586,2.586,0,0,1,.767-.671,4.7,4.7,0,0,1,2.4-.671h.1A15.393,15.393,0,0,1,17.594,2a2.562,2.562,0,0,1,2.4,1.918h.192a2.965,2.965,0,0,1,.767.192,1.882,1.882,0,0,1,.863.863,1.276,1.276,0,0,1,.288.767v6.618a5.606,5.606,0,0,1-.192,1.822,2.619,2.619,0,0,1-.863,1.151A4.886,4.886,0,0,1,19.417,16h-.1l-4.892,1.535a6.636,6.636,0,0,1-2.014.48,4.128,4.128,0,0,1-1.535,0,11.771,11.771,0,0,1-2.014-.48L3.878,16h-.1a5.216,5.216,0,0,1-1.631-.671,2.619,2.619,0,0,1-.863-1.151A3.847,3.847,0,0,1,1,12.359V5.741a2.965,2.965,0,0,1,.192-.767,1.882,1.882,0,0,1,.863-.863,2.257,2.257,0,0,1,.767-.192ZM10.4,5.453c.192.288.192.671.192,1.918v6.043a1.363,1.363,0,0,1-.576-.192,14.884,14.884,0,0,0-4.22-.671.906.906,0,0,1-.959-.959V4.4a.453.453,0,0,1,.48-.48,25.375,25.375,0,0,1,2.59.192,5.577,5.577,0,0,1,1.822.48A1.934,1.934,0,0,1,10.4,5.453Zm2.3,0c-.192.288-.192.671-.192,1.918v6.043a1.363,1.363,0,0,0,.576-.192,14.884,14.884,0,0,1,4.22-.671.906.906,0,0,0,.959-.959V4.4a.453.453,0,0,0-.48-.48,25.375,25.375,0,0,0-2.59.192,5.577,5.577,0,0,0-1.822.48A1.934,1.934,0,0,0,12.7,5.453Zm.192,13.908c.384.1.863.192,1.247.288l3.645,1.343a1.217,1.217,0,0,0,.576.1,1.719,1.719,0,0,0,1.727-1.727v-2.11c-.1,0-.288.1-.384.1s-.1,0-.192.1l-4.892,1.439A11.6,11.6,0,0,1,12.894,19.361Zm-9.976-2.11v2.11a1.719,1.719,0,0,0,1.727,1.727,1.217,1.217,0,0,0,.576-.1l3.645-1.343c.384-.1.863-.192,1.247-.288-.576-.1-1.151-.288-1.918-.48L3.3,17.443c-.1,0-.1,0-.192-.1C3.206,17.347,3.014,17.347,2.918,17.251Z" transform="translate(-1 -2)" fill="#d7d7d7" fill-rule="evenodd"/>
  </g>
</svg>
