<svg xmlns="http://www.w3.org/2000/svg" width="18.359" height="20" viewBox="0 0 18.359 20">
  <g id="Layer_2" data-name="Layer 2" transform="translate(-2.981 -2)">
    <path id="Path_60140" data-name="Path 60140" d="M15.593,17.74a5.119,5.119,0,0,1-5.714,0,5.054,5.054,0,0,1-2.871.886A4.909,4.909,0,0,1,5,18.2v6.15A2.149,2.149,0,0,0,7.143,26.5h2.5V22.211a1.429,1.429,0,0,1,1.429-1.429h3.571a1.429,1.429,0,0,1,1.429,1.429V26.5h2.5a2.149,2.149,0,0,0,2.143-2.143V18.1a4.989,4.989,0,0,1-5.121-.357Z" transform="translate(-0.577 -4.497)" fill="#d7d7d7"/>
    <path id="Path_60141" data-name="Path 60141" d="M13.5,24h3.571v4.286H13.5Z" transform="translate(-3.005 -6.286)" fill="#d7d7d7"/>
    <path id="Path_60142" data-name="Path 60142" d="M8.108,12.286,9.318,2H6.76A2.143,2.143,0,0,0,4.728,3.465L3.184,8.1a3.472,3.472,0,0,0,1.34,4.054,3.65,3.65,0,0,0,3.584.132Z" transform="translate(0 0)" fill="#d7d7d7"/>
    <path id="Path_60143" data-name="Path 60143" d="M26.042,8.1,24.5,3.465A2.143,2.143,0,0,0,22.463,2H20.147l1.226,10.416a3.527,3.527,0,0,0,3.329-.262A3.47,3.47,0,0,0,26.042,8.1Z" transform="translate(-4.904)" fill="#d7d7d7"/>
    <path id="Path_60144" data-name="Path 60144" d="M17.2,11.8a.7.7,0,0,1,.384-.166L16.451,2H13.425l-1.143,9.714a.676.676,0,0,1,.151.092A3.663,3.663,0,0,0,17.2,11.8Z" transform="translate(-2.657 0)" fill="#d7d7d7"/>
  </g>
</svg>
