<svg xmlns="http://www.w3.org/2000/svg" width="18.036" height="21.603" viewBox="0 0 18.036 21.603">
  <g id="lock-2" transform="translate(-1.9 0.1)">
    <path id="Path_102045" data-name="Path 102045" d="M17.16,7.512V6.242a6.242,6.242,0,1,0-12.485,0v1.27A4.459,4.459,0,0,0,2,11.593v5.351A4.464,4.464,0,0,0,6.459,21.4h8.918a4.464,4.464,0,0,0,4.459-4.459V11.593A4.459,4.459,0,0,0,17.16,7.512Zm-10.7-1.27a4.459,4.459,0,1,1,8.918,0v.892H6.459Zm11.593,10.7a2.675,2.675,0,0,1-2.675,2.675H6.459a2.675,2.675,0,0,1-2.675-2.675V11.593A2.675,2.675,0,0,1,6.459,8.918h8.918a2.675,2.675,0,0,1,2.675,2.675Z" transform="translate(0 0)" fill="#22383c" stroke="#22383c" stroke-width="0.2"/>
    <path id="Path_102046" data-name="Path 102046" d="M11.892,14a.892.892,0,0,0-.892.892v1.784a.892.892,0,0,0,1.784,0V14.892A.892.892,0,0,0,11.892,14Z" transform="translate(-0.974 -1.515)" fill="#22383c" stroke="#22383c" stroke-width="0.2"/>
  </g>
</svg>
