<svg xmlns="http://www.w3.org/2000/svg" width="14.637" height="14.636" viewBox="0 0 14.637 14.636">
  <path id="map-marker-8" d="M7.318,7.318A2.439,2.439,0,1,0,4.879,4.879,2.439,2.439,0,0,0,7.318,7.318Zm0-3.659A1.22,1.22,0,1,1,6.1,4.879,1.22,1.22,0,0,1,7.318,3.659ZM12.6,5.584l-.438-.146a4.874,4.874,0,1,0-9.669.106,3.077,3.077,0,0,0-1.554.793A3.016,3.016,0,0,0,0,8.538v2.485A3.057,3.057,0,0,0,2.2,13.95l1.75.549a3.038,3.038,0,0,0,.908.137,3.1,3.1,0,0,0,.826-.113L9.205,13.48a1.822,1.822,0,0,1,.959,0l1.456.488A2.439,2.439,0,0,0,14.636,11.6V8.46A3.058,3.058,0,0,0,12.6,5.584ZM4.731,2.294A3.664,3.664,0,0,1,9.912,7.478L7.745,9.585a.6.6,0,0,1-.847,0l-2.167-2.1a3.684,3.684,0,0,1,0-5.193ZM13.417,11.6a1.214,1.214,0,0,1-.466.959,1.2,1.2,0,0,1-.992.241l-1.43-.481a3.063,3.063,0,0,0-1.657-.01L5.345,13.351a1.83,1.83,0,0,1-1.033-.018l-1.765-.549A1.837,1.837,0,0,1,1.22,11.023V8.538a1.808,1.808,0,0,1,.561-1.319A1.844,1.844,0,0,1,2.8,6.727,4.892,4.892,0,0,0,3.875,8.355L6.05,10.461a1.819,1.819,0,0,0,2.546,0l2.173-2.112a4.856,4.856,0,0,0,1.106-1.72l.327.109A1.833,1.833,0,0,1,13.417,8.46Z" transform="translate(0 0)" fill="#b8babf"/>
</svg>
