<svg xmlns="http://www.w3.org/2000/svg" width="13.418" height="20.127" viewBox="0 0 13.418 20.127">
  <path id="mobile-notch" d="M13.262,0H8.155A4.2,4.2,0,0,0,4,4.192V15.933a4.2,4.2,0,0,0,4.193,4.193h5.032a4.2,4.2,0,0,0,4.193-4.193V4.193A4.2,4.2,0,0,0,13.262,0Zm2.478,15.933a2.519,2.519,0,0,1-2.516,2.516H8.193a2.519,2.519,0,0,1-2.516-2.516V4.193A2.52,2.52,0,0,1,7.7,1.726l.582,1.165a.839.839,0,0,0,.751.464h3.354a.84.84,0,0,0,.751-.464l.582-1.165a2.52,2.52,0,0,1,2.022,2.467V15.934Zm-4.193.839H9.87a.839.839,0,0,1-.839-.839h0a.839.839,0,0,1,.839-.839h1.677a.839.839,0,0,1,.839.839h0A.839.839,0,0,1,11.548,16.771Z" transform="translate(-4 0.001)" fill="#b8babf"/>
</svg>
