<svg xmlns="http://www.w3.org/2000/svg" width="43.164" height="20.554" viewBox="0 0 43.164 20.554">
  <g id="Group_54309" data-name="Group 54309" transform="translate(-353 -304)">
    <g id="Group_54303" data-name="Group 54303" transform="translate(353 304)">
      <g id="Group_54302" data-name="Group 54302" transform="translate(0 0)">
        <g id="Group_54290" data-name="Group 54290" transform="translate(0 12.349)">
          <path id="Path_50731" data-name="Path 50731" d="M448.714,657.584H407.6a1.024,1.024,0,1,1,0-2.049h41.115a1.024,1.024,0,1,1,0,2.049Z" transform="translate(-406.575 -655.535)" fill="#f2fbf8"/>
        </g>
        <g id="Group_54291" data-name="Group 54291" transform="translate(9.587 18.505)">
          <path id="Path_50732" data-name="Path 50732" d="M453.317,672.607H431a1.024,1.024,0,0,1,0-2.049h22.322a1.024,1.024,0,1,1,0,2.049Z" transform="translate(-429.971 -670.558)" fill="#f2fbf8"/>
        </g>
        <g id="Group_54292" data-name="Group 54292" transform="translate(8.206)">
          <path id="Path_50733" data-name="Path 50733" d="M453.35,639.8H426.6v-1.024a13.375,13.375,0,0,1,26.75,0Zm-24.656-2.049h22.561a11.327,11.327,0,0,0-22.561,0Z" transform="translate(-426.6 -625.4)" fill="#f2fbf8"/>
        </g>
      </g>
    </g>
  </g>
</svg>
