<svg xmlns="http://www.w3.org/2000/svg" width="14.731" height="14.724" viewBox="0 0 14.731 14.724">
  <g id="Group_72972" data-name="Group 72972" transform="translate(-354.89 -369)">
    <path id="envelope-open-5" d="M13.785,4.976,9.535.9A3.085,3.085,0,0,0,5.2.893L.945,4.976A3.086,3.086,0,0,0,0,7.19v4.476a3.073,3.073,0,0,0,3.069,3.069h8.593a3.073,3.073,0,0,0,3.069-3.069V7.19A3.084,3.084,0,0,0,13.785,4.976ZM6.064,1.771a1.849,1.849,0,0,1,2.613.01l4.141,3.967L8.667,9.9a1.887,1.887,0,0,1-2.6,0L1.912,5.748Zm7.44,9.9a1.841,1.841,0,0,1-1.841,1.841H3.069a1.841,1.841,0,0,1-1.841-1.841V7.19a1.85,1.85,0,0,1,.036-.355L5.2,10.767a3.084,3.084,0,0,0,4.339,0l3.932-3.932a1.85,1.85,0,0,1,.036.355Z" transform="translate(354.89 368.989)" fill="#b8babf"/>
  </g>
</svg>
