<svg xmlns="http://www.w3.org/2000/svg" width="31.927" height="31.927" viewBox="0 0 31.927 31.927">
  <path id="Path_60139" data-name="Path 60139" d="M5.652,9.2,3.07,9.226a2.56,2.56,0,1,0,0,5.071H5.629l4.626,7.747a2.442,2.442,0,0,0,.273.273,1.655,1.655,0,0,0,1.17.515l2.489.023-.3-1.521,1.849-.008a1.1,1.1,0,0,0,0-2.2H13.657a.706.706,0,0,0-.211.039l-1.006-4.876,5.976-.858,2.426,1.818a1.423,1.423,0,0,0,2.052-1.927L21.833,11.73l1.061-1.576a1.434,1.434,0,0,0-2.052-1.88l-2.419,1.81-5.976-.858.967-4.837a.706.706,0,0,0,.211.039H15.7a1.1,1.1,0,0,0,0-2.2L13.852,2.22,14.156.7,11.7.691a1.666,1.666,0,0,0-1.436.811Z" transform="translate(16.049 -0.601) rotate(45)" fill="#d7d7d7"/>
</svg>
