<svg xmlns="http://www.w3.org/2000/svg" width="11.196" height="14.928" viewBox="0 0 11.196 14.928">
  <g id="user-add-2" transform="translate(0 0)">
    <path id="Path_100808" data-name="Path 100808" d="M6.732,7.464A3.732,3.732,0,1,0,3,3.732,3.732,3.732,0,0,0,6.732,7.464Zm0-6.22A2.488,2.488,0,1,1,4.244,3.732,2.488,2.488,0,0,1,6.732,1.244Z" transform="translate(-1.134 0)" fill="#b8babf"/>
    <path id="Path_100809" data-name="Path 100809" d="M5.6,14A5.6,5.6,0,0,0,0,19.6a.622.622,0,1,0,1.244,0,4.354,4.354,0,1,1,8.708,0,.622.622,0,0,0,1.244,0A5.6,5.6,0,0,0,5.6,14Z" transform="translate(0 -5.292)" fill="#b8babf"/>
  </g>
</svg>
